<?xml version="1.0" encoding="UTF-8"?>
<svg width="16px" height="16px" viewBox="0 0 16 16" version="1.1" xmlns="http://www.w3.org/2000/svg" xmlns:xlink="http://www.w3.org/1999/xlink">
    <!-- Generator: Sketch 47.1 (45422) - http://www.bohemiancoding.com/sketch -->
    <title>Group 5</title>
    <desc>Created with Sketch.</desc>
    <defs></defs>
    <g id="Page-1" stroke="none" stroke-width="1" fill="none" fill-rule="evenodd">
        <g id="Artboard-2" transform="translate(-349.000000, -168.000000)">
            <g id="Group-5" transform="translate(349.000000, 168.000000)">
                <path d="M12.7731092,10.2857143 L12.7731092,10 L12.7731092,4.42857143 C12.7731092,3.87628668 12.325394,3.42857143 11.7731092,3.42857143 L6.31932773,3.42857143 L6.31932773,5.85714286 L6.31932773,5.85714286 C6.31932773,6.40942761 5.87161248,6.85714286 5.31932773,6.85714286 L3.09243697,6.85714286 L3.09243697,12.7142857 C3.09243697,13.2665705 3.54015222,13.7142857 4.09243697,13.7142857 L10.6218487,13.7142857 L10.6218487,11.2857143 C10.6218487,10.7334295 11.069564,10.2857143 11.6218487,10.2857143 L12.7731092,10.2857143 Z" id="Combined-Shape" fill="#EBF1F5"></path>
                <rect id="Rectangle-20-Copy-2" stroke="#EBF1F5" x="0.5" y="0.5" width="5.45378151" height="5.85714286" rx="1"></rect>
                <rect id="Rectangle-20-Copy-3" stroke="#EBF1F5" x="10.0462185" y="9.64285714" width="5.45378151" height="5.85714286" rx="1"></rect>
            </g>
        </g>
    </g>
</svg>
