<?xml version="1.0" encoding="UTF-8"?>
<svg width="10px" height="14px" viewBox="0 0 10 14" version="1.1" xmlns="http://www.w3.org/2000/svg" xmlns:xlink="http://www.w3.org/1999/xlink">
    <!-- Generator: Sketch 48.2 (47327) - http://www.bohemiancoding.com/sketch -->
    <title>016-center-alignment</title>
    <desc>Created with Sketch.</desc>
    <defs></defs>
    <g id="Most-Recent-Mock" stroke="none" stroke-width="1" fill="none" fill-rule="evenodd" transform="translate(-1182.000000, -167.000000)">
        <g id="016-center-alignment" transform="translate(1182.000000, 167.000000)" fill="#EBF1F5" fill-rule="nonzero">
            <path d="M4.78231293,1.63333333 C4.66232035,1.63333333 4.56493506,1.5288 4.56493506,1.4 L4.56493506,0.233333333 C4.56493506,0.104533333 4.66232035,0 4.78231293,0 C4.9023055,0 4.99969079,0.104533333 4.99969079,0.233333333 L4.99969079,1.4 C4.99969079,1.5288 4.9023055,1.63333333 4.78231293,1.63333333 Z" id="Shape"></path>
            <path d="M4.78231293,8.16666667 C4.66232035,8.16666667 4.56493506,8.06213333 4.56493506,7.93333333 L4.56493506,6.06666667 C4.56493506,5.93786667 4.66232035,5.83333333 4.78231293,5.83333333 C4.9023055,5.83333333 4.99969079,5.93786667 4.99969079,6.06666667 L4.99969079,7.93333333 C4.99969079,8.06213333 4.9023055,8.16666667 4.78231293,8.16666667 Z" id="Shape"></path>
            <path d="M4.78231293,14 C4.66232035,14 4.56493506,13.8954667 4.56493506,13.7666667 L4.56493506,12.6 C4.56493506,12.4712 4.66232035,12.3666667 4.78231293,12.3666667 C4.9023055,12.3666667 4.99969079,12.4712 4.99969079,12.6 L4.99969079,13.7666667 C4.99969079,13.8954667 4.9023055,14 4.78231293,14 Z" id="Shape"></path>
            <path d="M9.03031107,12.6 L0.53431478,12.6 C0.239333024,12.6 0,12.3431 0,12.0264667 L0,8.50686667 C0,8.19023333 0.239333024,7.93333333 0.53431478,7.93333333 L9.03009369,7.93333333 C9.32529283,7.93333333 9.56462585,8.19023333 9.56462585,8.50686667 L9.56462585,12.0262333 C9.56462585,12.3431 9.32529283,12.6 9.03031107,12.6 Z" id="Shape"></path>
            <path d="M7.94342177,6.06666667 L1.62120408,6.06666667 C1.32622233,6.06666667 1.0868893,5.80976667 1.0868893,5.49313333 L1.0868893,1.97353333 C1.0868893,1.6569 1.32622233,1.4 1.62120408,1.4 L7.94320439,1.4 C8.23840353,1.4 8.47773655,1.6569 8.47773655,1.97353333 L8.47773655,5.4929 C8.47773655,5.80976667 8.23840353,6.06666667 7.94342177,6.06666667 Z" id="Shape"></path>
        </g>
    </g>
</svg>