<?xml version="1.0" encoding="UTF-8"?>
<svg width="14px" height="16px" viewBox="0 0 14 16" version="1.1" xmlns="http://www.w3.org/2000/svg" xmlns:xlink="http://www.w3.org/1999/xlink">
    <!-- Generator: Sketch 47.1 (45422) - http://www.bohemiancoding.com/sketch -->
    <title>export-file</title>
    <desc>Created with Sketch.</desc>
    <defs></defs>
    <g id="Page-1" stroke="none" stroke-width="1" fill="none" fill-rule="evenodd">
        <g id="Artboard-2" transform="translate(-324.000000, -135.000000)" fill-rule="nonzero" fill="#979797">
            <g id="Group-3" transform="translate(322.000000, 135.000000)">
                <g id="export-file" transform="translate(2.000000, 0.000000)">
                    <path d="M14,15.4110425 L14,4.99633417 C14,4.82945134 13.9326039,4.67240756 13.8170484,4.56442047 L9.16593725,0.15704378 C9.06,0.058895748 8.91555556,0 8.77111111,0 L1.57777778,0 C1.26,0 1,0.265030866 1,0.58895748 L1,7.1656378 C1,7.48956441 1.26,7.75459528 1.57777778,7.75459528 C1.89555556,7.75459528 2.15555556,7.48956441 2.15555556,7.1656378 L2.15555556,1.17791496 L8.0296183,1.17791496 L8.0296183,5.69324409 C8.0296183,6.01717071 8.2896183,6.28220158 8.60739608,6.28220158 L12.7481255,6.28220158 C12.7770144,6.28220158 12.8155216,6.28220158 12.8444105,6.27239717 L12.8444105,14.822085 L2.15555556,14.822085 L2.15555556,12.4662551 C2.15555556,12.1423285 1.89555556,11.8772976 1.57777778,11.8772976 C1.26,11.8772976 1,12.1423285 1,12.4662551 L1,15.4110425 C1,15.7349691 1.26,16 1.57777778,16 L13.4222222,16 C13.74,16 14,15.7349691 14,15.4110425 Z M9.18517386,1.78651591 L12.6807294,5.10432126 L9.18517386,5.10432126 L9.18517386,1.78651591 L9.18517386,1.78651591 Z" id="Shape"></path>
                    <path d="M0,10.5115094 C0,10.8531135 0.26880566,11.1326078 0.59734591,11.1326078 L6.81968743,11.1326078 L4.89823646,12.9130778 C4.64935405,13.1408017 4.6294308,13.5341762 4.84844592,13.792955 C4.96791511,13.9275142 5.12719564,14 5.29645536,14 C5.43584778,14 5.57520507,13.9482296 5.69467425,13.8447254 L8.80087298,10.9669572 C8.93028622,10.853077 9,10.6771234 9,10.5011334 C9,10.3251433 8.93032136,10.1595293 8.80087298,10.0353096 L5.69470939,7.15757791 C5.44582697,6.929854 5.06749618,6.95053292 4.84848106,7.20934829 C4.62946594,7.46812712 4.64935405,7.86150163 4.8982716,8.08922554 L6.84958986,9.89041096 L0.59734591,9.89041096 C0.26880566,9.89041096 0,10.1699052 0,10.5115094 Z" id="Shape"></path>
                </g>
            </g>
        </g>
    </g>
</svg>