<?xml version="1.0" encoding="UTF-8"?>
<svg width="16px" height="16px" viewBox="0 0 16 16" version="1.1" xmlns="http://www.w3.org/2000/svg" xmlns:xlink="http://www.w3.org/1999/xlink">
    <!-- Generator: Sketch 48.2 (47327) - http://www.bohemiancoding.com/sketch -->
    <title>017-flip-1</title>
    <desc>Created with Sketch.</desc>
    <defs></defs>
    <g id="FlipHorz" stroke="none" stroke-width="1" fill="none" fill-rule="evenodd">
        <g id="017-flip-1" fill="#EBF1F5" fill-rule="nonzero">
            <polygon id="Shape" points="1 0 6 6.4 10.9 0"></polygon>
            <path d="M5.9,9.6 L1,16 L11,16 L5.9,9.6 Z M3.1,14.9333333 L5.9,11.3066667 L8.9,14.9333333 L3.1,14.9333333 Z" id="Shape"></path>
            <polygon id="Shape" points="10 7.46666667 11 7.46666667 11 8.53333333 10 8.53333333"></polygon>
            <polygon id="Shape" points="12 7.46666667 13 7.46666667 13 8.53333333 12 8.53333333"></polygon>
            <polygon id="Shape" points="8 7.46666667 9 7.46666667 9 8.53333333 8 8.53333333"></polygon>
            <polygon id="Shape" points="6 7.46666667 7 7.46666667 7 8.53333333 6 8.53333333"></polygon>
            <polygon id="Shape" points="4 7.46666667 5 7.46666667 5 8.53333333 4 8.53333333"></polygon>
            <polygon id="Shape" points="2 7.46666667 3 7.46666667 3 8.53333333 2 8.53333333"></polygon>
            <polygon id="Shape" points="0 7.46666667 1 7.46666667 1 8.53333333 0 8.53333333"></polygon>
            <path d="M15,8 C15,9.38666667 14.3,10.7733333 13.1,11.84 L12,10.6666667 L12,13.8666667 L15,13.8666667 L13.8,12.5866667 C15.2,11.3066667 16,9.70666667 16,8 C16,8 16,8 16,8 C16,5.97333333 15,4.16 13.1,2.77333333 L12.5,3.62666667 C14.1,4.8 15,6.29333333 15,8 Z" id="Shape"></path>
        </g>
    </g>
</svg>