<?xml version="1.0" encoding="UTF-8"?>
<svg width="16px" height="16px" viewBox="0 0 16 16" version="1.1" xmlns="http://www.w3.org/2000/svg" xmlns:xlink="http://www.w3.org/1999/xlink">
    <!-- Generator: Sketch 48.2 (47327) - http://www.bohemiancoding.com/sketch -->
    <title>freehand</title>
    <desc>Created with Sketch.</desc>
    <defs></defs>
    <g id="Most-Recent-Mock" stroke="none" stroke-width="1" fill="none" fill-rule="evenodd" transform="translate(-18.000000, -356.000000)">
        <g id="Group-2" transform="translate(18.000000, 181.000000)" fill="#EBF1F5">
            <g id="freehand" transform="translate(0.000000, 175.000000)">
                <g id="007-edit">
                    <g id="Group" fill-rule="nonzero">
                        <path d="M15.4290569,14.6248813 L0.557349193,14.6248813 C0.24468989,14.6248813 0,14.8959767 0,15.2098765 C0,15.5237764 0.258283772,15.7948718 0.557349193,15.7948718 L15.4426508,15.7948718 C15.7553101,15.7948718 16,15.5237764 16,15.2098765 C16,14.8959767 15.7417162,14.6248813 15.4290569,14.6248813 Z" id="Shape"></path>
                        <path d="M0.0131548039,9.65242165 L0,12.2997103 C0,12.4490445 0.0526192154,12.5983788 0.157857646,12.7069855 C0.263096077,12.8155922 0.394644116,12.8698955 0.539346958,12.8698955 L3.09137891,12.8563197 C3.23608175,12.8563197 3.36762979,12.8020163 3.47286822,12.6934096 L12.2865868,3.59759738 C12.4970637,3.38038395 12.4970637,3.02741214 12.2865868,2.79662287 L9.76086446,0.16291007 C9.5503876,-0.0543033567 9.2083627,-0.0543033567 8.98473103,0.16291007 L7.22198732,1.99564836 L0.17101245,9.25872232 C0.0789288231,9.36732903 0.0131548039,9.50308742 0.0131548039,9.65242165 Z M9.37937515,1.35758392 L11.1552737,3.19032221 L10.1555086,4.22208598 L8.37961005,2.38934769 L9.37937515,1.35758392 Z M1.10500352,9.89678676 L7.60347663,3.19032221 L9.37937515,5.02306049 L2.88090204,11.7159492 L1.09184872,11.729525 L1.10500352,9.89678676 Z" id="Shape"></path>
                    </g>
                </g>
            </g>
        </g>
    </g>
</svg>