<?xml version="1.0" encoding="UTF-8"?>
<svg width="12px" height="14px" viewBox="0 0 12 14" version="1.1" xmlns="http://www.w3.org/2000/svg" xmlns:xlink="http://www.w3.org/1999/xlink">
    <!-- Generator: Sketch 48.2 (47327) - http://www.bohemiancoding.com/sketch -->
    <title>015-left-alignment</title>
    <desc>Created with Sketch.</desc>
    <defs></defs>
    <g id="Most-Recent-Mock" stroke="none" stroke-width="1" fill="none" fill-rule="evenodd" transform="translate(-1235.000000, -167.000000)">
        <g id="015-left-alignment" transform="translate(1235.259864, 167.000000)" fill="#EBF1F5" fill-rule="nonzero">
            <path d="M8.31542531,6.06666667 L1.87341823,6.06666667 C1.57284735,6.06666667 1.32897959,5.80976667 1.32897959,5.49313333 L1.32897959,1.97353333 C1.32897959,1.6569 1.57284735,1.4 1.87341823,1.4 L8.31520381,1.4 C8.61599619,1.4 8.85986395,1.6569 8.85986395,1.97353333 L8.85986395,5.4929 C8.85986395,5.80976667 8.61599619,6.06666667 8.31542531,6.06666667 Z" id="Shape"></path>
            <path d="M10.5303913,12.6 L1.87341823,12.6 C1.57284735,12.6 1.32897959,12.3431 1.32897959,12.0264667 L1.32897959,8.50686667 C1.32897959,8.19023333 1.57284735,7.93333333 1.87341823,7.93333333 L10.5301698,7.93333333 C10.8309622,7.93333333 11.0748299,8.19023333 11.0748299,8.50686667 L11.0748299,12.0262333 C11.0748299,12.3431 10.8309622,12.6 10.5303913,12.6 Z" id="Shape"></path>
            <path d="M0.221496599,14 C0.0992304762,14 0,13.8954667 0,13.7666667 L0,0.233333333 C0,0.104533333 0.0992304762,0 0.221496599,0 C0.343762721,0 0.442993197,0.104533333 0.442993197,0.233333333 L0.442993197,13.7666667 C0.442993197,13.8954667 0.343762721,14 0.221496599,14 Z" id="Shape"></path>
        </g>
    </g>
</svg>