<?xml version="1.0" encoding="UTF-8"?>
<svg width="12px" height="14px" viewBox="0 0 12 14" version="1.1" xmlns="http://www.w3.org/2000/svg" xmlns:xlink="http://www.w3.org/1999/xlink">
    <!-- Generator: Sketch 48.2 (47327) - http://www.bohemiancoding.com/sketch -->
    <title>014-right-alignment</title>
    <desc>Created with Sketch.</desc>
    <defs></defs>
    <g id="Most-Recent-Mock" stroke="none" stroke-width="1" fill="none" fill-rule="evenodd" transform="translate(-1261.000000, -167.000000)">
        <g id="014-right-alignment" transform="translate(1261.638095, 167.000000)" fill="#EBF1F5" fill-rule="nonzero">
            <path d="M0.544438639,12.6 L9.2011902,12.6 C9.50198259,12.6 9.74585034,12.3431 9.74585034,12.0264667 L9.74585034,8.50686667 C9.74585034,8.19023333 9.50198259,7.93333333 9.2014117,7.93333333 L0.544438639,7.93333333 C0.243867755,7.93333333 0,8.19023333 0,8.50686667 L0,12.0262333 C0,12.3431 0.243867755,12.6 0.544438639,12.6 Z" id="Shape"></path>
            <path d="M10.8533333,14 C10.7310672,14 10.6318367,13.8954667 10.6318367,13.7666667 L10.6318367,0.233333333 C10.6318367,0.104533333 10.7310672,0 10.8533333,0 C10.9755995,0 11.0748299,0.104533333 11.0748299,0.233333333 L11.0748299,13.7666667 C11.0748299,13.8954667 10.9755995,14 10.8533333,14 Z" id="Shape"></path>
            <path d="M9.2014117,6.06666667 L2.75940463,6.06666667 C2.45883374,6.06666667 2.21496599,5.80976667 2.21496599,5.49313333 L2.21496599,1.97353333 C2.21496599,1.6569 2.45883374,1.4 2.75940463,1.4 L9.2011902,1.4 C9.50198259,1.4 9.74585034,1.6569 9.74585034,1.97353333 L9.74585034,5.4929 C9.74585034,5.80976667 9.50198259,6.06666667 9.2014117,6.06666667 Z" id="Shape"></path>
        </g>
    </g>
</svg>