<?xml version="1.0" encoding="UTF-8"?>
<svg width="15px" height="15px" viewBox="0 0 15 15" version="1.1" xmlns="http://www.w3.org/2000/svg" xmlns:xlink="http://www.w3.org/1999/xlink">
    <!-- Generator: Sketch 47.1 (45422) - http://www.bohemiancoding.com/sketch -->
    <title>rotate</title>
    <desc>Created with Sketch.</desc>
    <defs></defs>
    <g id="Page-1" stroke="none" stroke-width="1" fill="none" fill-rule="evenodd">
        <g id="Artboard-2" transform="translate(-314.000000, -200.000000)" fill-rule="nonzero" fill="#EBF1F5">
            <g id="rotate" transform="translate(314.000000, 200.000000)">
                <path d="M1.28943786,6.26373626 C1.80388819,6.26373626 2.26858161,5.97445051 2.46757641,5.53001778 C3.28920587,3.69667511 5.22118625,2.40462436 7.47348289,2.40462436 C8.71484392,2.40462436 9.85291419,2.80310357 10.7653213,3.46401616 L10.0501683,3.5677038 C9.80588324,3.6031686 9.61585454,3.7846758 9.58274895,4.01407433 C9.54957768,4.24334982 9.68154023,4.46579687 9.9068093,4.56059524 L13.8396087,6.21762894 C14.0120008,6.29012724 14.2117181,6.27619354 14.3706118,6.18056469 C14.5292427,6.08478204 14.6256036,5.92040744 14.6266546,5.74354481 L14.64705,1.68514717 C14.6484294,1.45427223 14.4877294,1.25009585 14.2521476,1.18279577 C14.0161718,1.1154957 13.7612456,1.20091266 13.6247179,1.39309314 L13.0826468,2.15606316 C11.6373974,0.823656973 9.65703946,0 7.47348289,0 C4.1626285,0 1.31604057,1.89356825 0.101971946,4.58489463 C-0.0666432217,4.95793637 -0.0241445799,5.3850827 0.214590063,5.72256736 C0.453324705,6.06017506 0.856864746,6.26373626 1.28943786,6.26373626 Z" id="Shape"></path>
                <path d="M14.7854615,9.27743529 C14.5466943,8.93979518 14.1431218,8.73626374 13.7105819,8.73626374 C13.1961321,8.73626374 12.7314392,9.02555091 12.5324445,9.46998582 C11.710783,11.3033375 9.77880456,12.5953946 7.52654295,12.5953946 C6.28515029,12.5953946 5.14708113,12.1969134 4.23464209,11.5359976 L4.94982719,11.432371 C5.19407919,11.396906 5.38410771,11.2153671 5.41727895,10.9859367 C5.45041735,10.7566909 5.31848777,10.534212 5.09321892,10.4394131 L1.1604234,8.78237128 C0.987998627,8.70990338 0.788314322,8.72377564 0.629387949,8.81943572 C0.470790004,8.91521884 0.374396347,9.07959424 0.37337822,9.25642698 L0.35294999,13.3148446 C0.351570591,13.5457206 0.512237634,13.749898 0.747851976,13.8171984 C0.98382759,13.8844988 1.23878635,13.7990507 1.37528108,13.6068385 L1.91735171,12.8438647 C3.36256687,14.176339 5.34295567,15 7.52651011,15 C10.837427,15 13.6839136,13.1064532 14.8979482,10.4151136 C15.0666617,10.04207 15.0241631,9.61495237 14.7854615,9.27743529 Z" id="Shape"></path>
            </g>
        </g>
    </g>
</svg>
