<?xml version="1.0" encoding="UTF-8"?>
<svg width="16px" height="16px" viewBox="0 0 16 16" version="1.1" xmlns="http://www.w3.org/2000/svg" xmlns:xlink="http://www.w3.org/1999/xlink">
    <!-- Generator: Sketch 47.1 (45422) - http://www.bohemiancoding.com/sketch -->
    <title>scroll-arrows</title>
    <desc>Created with Sketch.</desc>
    <defs></defs>
    <g id="Page-1" stroke="none" stroke-width="1" fill="none" fill-rule="evenodd">
        <g id="Artboard-2" transform="translate(-245.000000, -168.000000)" fill-rule="nonzero" fill="#979797">
            <g id="scroll-arrows" transform="translate(245.000000, 168.000000)">
                <path d="M12.8497982,4.84979817 C12.5175271,4.51752709 11.9804546,4.51752709 11.6481836,4.84979817 C11.3159125,5.18206926 11.3159125,5.7191417 11.6481836,6.05141279 L12.7469726,7.15020183 L8.84979817,7.15020183 L8.84979817,3.25302741 L9.94858721,4.35181644 C10.1142979,4.51752709 10.3318462,4.60080731 10.5493945,4.60080731 C10.7669429,4.60080731 10.9844912,4.51752709 11.1502018,4.35181644 C11.4824729,4.01954536 11.4824729,3.48247291 11.1502018,3.15020183 L8.70710678,0.707106781 L8.70710678,0.707106781 C8.31658249,0.316582489 7.68341751,0.316582489 7.29289322,0.707106781 L4.84979817,3.15020183 C4.51752709,3.48247291 4.51752709,4.01954536 4.84979817,4.35181644 C5.18206926,4.68408753 5.7191417,4.68408753 6.05141279,4.35181644 L7.15020183,3.25302741 L7.15020183,7.15020183 L3.25302741,7.15020183 L4.35181644,6.05141279 C4.68408753,5.7191417 4.68408753,5.18206926 4.35181644,4.84979817 C4.01954536,4.51752709 3.48247291,4.51752709 3.15020183,4.84979817 L0.707106781,7.29289322 L0.707106781,7.29289322 C0.316582489,7.68341751 0.316582489,8.31658249 0.707106781,8.70710678 L3.15020183,11.1502018 C3.31591247,11.3159125 3.5334608,11.3991927 3.75100914,11.3991927 C3.96855747,11.3991927 4.1861058,11.3159125 4.35181644,11.1502018 C4.68408753,10.8179307 4.68408753,10.2808583 4.35181644,9.94858721 L3.25302741,8.84979817 L7.15020183,8.84979817 L7.15020183,12.7469726 L6.05141279,11.6481836 C5.7191417,11.3159125 5.18206926,11.3159125 4.84979817,11.6481836 C4.51752709,11.9804546 4.51752709,12.5175271 4.84979817,12.8497982 L7.29289322,15.2928932 L7.29289322,15.2928932 C7.68341751,15.6834175 8.31658249,15.6834175 8.70710678,15.2928932 L11.1502018,12.8497982 C11.4824729,12.5175271 11.4824729,11.9804546 11.1502018,11.6481836 C10.8179307,11.3159125 10.2808583,11.3159125 9.94858721,11.6481836 L8.84979817,12.7469726 L8.84979817,8.84979817 L12.7469726,8.84979817 L11.6481836,9.94858721 C11.3159125,10.2808583 11.3159125,10.8179307 11.6481836,11.1502018 C11.8138942,11.3159125 12.0314425,11.3991927 12.2489909,11.3991927 C12.4665392,11.3991927 12.6840875,11.3159125 12.8497982,11.1502018 L15.2928932,8.70710678 L15.2928932,8.70710678 C15.6834175,8.31658249 15.6834175,7.68341751 15.2928932,7.29289322 L12.8497982,4.84979817 Z" id="Shape"></path>
            </g>
        </g>
    </g>
</svg>