<?xml version="1.0" encoding="UTF-8"?>
<svg width="16px" height="16px" viewBox="0 0 16 16" version="1.1" xmlns="http://www.w3.org/2000/svg" xmlns:xlink="http://www.w3.org/1999/xlink">
    <!-- Generator: Sketch 46.2 (44496) - http://www.bohemiancoding.com/sketch -->
    <title>SendToBack</title>
    <desc>Created with Sketch.</desc>
    <defs></defs>
    <g id="Page-1" stroke="none" stroke-width="1" fill="none" fill-rule="evenodd">
        <g id="Artboard-2" transform="translate(-284.000000, -135.000000)">
            <g id="SendToBack" transform="translate(284.000000, 135.000000)">
                <path d="M12.3076923,2.46153846 L12.3076923,1 C12.3076923,0.44771525 11.8599771,8.7960173e-16 11.3076923,0 L1,0 L1,0 C0.44771525,1.01453063e-16 -6.76353751e-17,0.44771525 0,1 L0,1 L0,11.3076923 C1.04869017e-15,11.8599771 0.44771525,12.3076923 1,12.3076923 L1,12.3076923 L2.46153846,12.3076923 L2.46153846,3.46153846 C2.46153846,2.90925371 2.90925371,2.46153846 3.46153846,2.46153846 L12.3076923,2.46153846 Z" id="Combined-Shape-Copy" fill="#EBF1F5"></path>
                <rect id="Rectangle-17-Copy-6" stroke="#EBF1F5" x="4.19230769" y="4.19230769" width="11.3076923" height="11.3076923" rx="1"></rect>
                <path d="M4,13.8461538 L3.15384615,13.8461538 L3.15384615,13.8461538 C2.6015614,13.8461538 2.15384615,13.3984386 2.15384615,12.8461538 L2.15384615,2.15384615 L12.8461538,2.15384615 L12.8461538,2.15384615 C13.3984386,2.15384615 13.8461538,2.6015614 13.8461538,3.15384615 L13.8461538,4" id="Path-6" stroke="#EBF1F5"></path>
            </g>
        </g>
    </g>
</svg>
