<?xml version="1.0" encoding="UTF-8"?>
<svg width="11px" height="12px" viewBox="0 0 11 12" version="1.1" xmlns="http://www.w3.org/2000/svg" xmlns:xlink="http://www.w3.org/1999/xlink">
    <!-- Generator: Sketch 47.1 (45422) - http://www.bohemiancoding.com/sketch -->
    <title>Group</title>
    <desc>Created with Sketch.</desc>
    <defs></defs>
    <g id="Page-1" stroke="none" stroke-width="1" fill="none" fill-rule="evenodd">
        <g id="Group" transform="translate(-4.000000, -2.000000)">
            <rect id="Rectangle" x="0" y="0" width="16" height="16"></rect>
            <g id="text" transform="translate(4.000000, 2.000000)" fill-rule="nonzero" fill="#EBF1F5">
                <path d="M10.3818506,0 L6.23050958,0 L4.83970498,0 L0.646218391,0 C0.297084291,0 0,0.289899281 0,0.647482014 L0,2.07194245 C0,2.42952518 0.283049808,2.71942446 0.632183908,2.71942446 C0.981318008,2.71942446 1.26436782,2.42952518 1.26436782,2.07194245 L1.26436782,1.29496403 L4.17241379,1.29496403 L4.17241379,10.705036 L3.42782759,10.705036 C3.07869349,10.705036 2.79564368,10.9949353 2.79564368,11.352518 C2.79564368,11.7101007 3.07869349,12 3.42782759,12 L7.60024138,12 C7.94937548,12 8.23242529,11.7101007 8.23242529,11.352518 C8.23242529,10.9949353 7.94937548,10.705036 7.60024138,10.705036 L6.82758621,10.705036 L6.82758621,1.29496403 L9.73563218,1.29496403 L9.73563218,2.07194245 C9.73563218,2.42952518 10.018682,2.71942446 10.3678161,2.71942446 C10.7169502,2.71942446 11,2.42952518 11,2.07194245 L11,0.647482014 C11,0.289899281 10.7309847,0 10.3818506,0 Z" id="Shape"></path>
            </g>
        </g>
    </g>
</svg>
