<?xml version="1.0" encoding="UTF-8"?>
<svg width="14px" height="11px" viewBox="0 0 14 11" version="1.1" xmlns="http://www.w3.org/2000/svg" xmlns:xlink="http://www.w3.org/1999/xlink">
    <!-- Generator: Sketch 48.2 (47327) - http://www.bohemiancoding.com/sketch -->
    <title>013-vertical-alignment</title>
    <desc>Created with Sketch.</desc>
    <defs></defs>
    <g id="Most-Recent-Mock" stroke="none" stroke-width="1" fill="none" fill-rule="evenodd" transform="translate(-1206.000000, -169.000000)">
        <g id="013-vertical-alignment" transform="translate(1206.868027, 169.074074)" fill="#EBF1F5" fill-rule="nonzero">
            <path d="M12.8702948,5.42087542 L11.7795918,5.42087542 C11.6589601,5.42087542 11.5614512,5.3152862 11.5614512,5.18518519 C11.5614512,5.05508418 11.6589601,4.94949495 11.7795918,4.94949495 L12.8702948,4.94949495 C12.9909265,4.94949495 13.0884354,5.05508418 13.0884354,5.18518519 C13.0884354,5.3152862 12.9909265,5.42087542 12.8702948,5.42087542 Z" id="Shape"></path>
            <path d="M7.41678005,5.42087542 L5.67165533,5.42087542 C5.55124172,5.42087542 5.45351474,5.3152862 5.45351474,5.18518519 C5.45351474,5.05508418 5.55124172,4.94949495 5.67165533,4.94949495 L7.41678005,4.94949495 C7.53719365,4.94949495 7.63492063,5.05508418 7.63492063,5.18518519 C7.63492063,5.3152862 7.53719365,5.42087542 7.41678005,5.42087542 Z" id="Shape"></path>
            <path d="M1.30884354,5.42087542 L0.21814059,5.42087542 C0.0977269841,5.42087542 0,5.3152862 0,5.18518519 C0,5.05508418 0.0977269841,4.94949495 0.21814059,4.94949495 L1.30884354,4.94949495 C1.42925714,4.94949495 1.52698413,5.05508418 1.52698413,5.18518519 C1.52698413,5.3152862 1.42925714,5.42087542 1.30884354,5.42087542 Z" id="Shape"></path>
            <path d="M1.30884354,9.79104377 L1.30884354,0.579326599 C1.30884354,0.259494949 1.54901633,0 1.84503311,0 L5.13524762,0 C5.43148254,0 5.67165533,0.259494949 5.67165533,0.579326599 L5.67165533,9.79080808 C5.67165533,10.1108754 5.43148254,10.3703704 5.13546576,10.3703704 L1.84503311,10.3703704 C1.54901633,10.3703704 1.30884354,10.1108754 1.30884354,9.79104377 Z" id="Shape"></path>
            <path d="M7.41678005,8.61259259 L7.41678005,1.75777778 C7.41678005,1.43794613 7.65695283,1.17845118 7.95296961,1.17845118 L11.2431841,1.17845118 C11.539419,1.17845118 11.7795918,1.43794613 11.7795918,1.75777778 L11.7795918,8.6123569 C11.7795918,8.93242424 11.539419,9.19191919 11.2434023,9.19191919 L7.95296961,9.19191919 C7.65695283,9.19191919 7.41678005,8.93242424 7.41678005,8.61259259 Z" id="Shape"></path>
        </g>
    </g>
</svg>