<?xml version="1.0" encoding="UTF-8"?>
<svg width="14px" height="12px" viewBox="0 0 14 12" version="1.1" xmlns="http://www.w3.org/2000/svg" xmlns:xlink="http://www.w3.org/1999/xlink">
    <!-- Generator: Sketch 48.2 (47327) - http://www.bohemiancoding.com/sketch -->
    <title>011-vertical-alignment-2</title>
    <desc>Created with Sketch.</desc>
    <defs></defs>
    <g id="Most-Recent-Mock" stroke="none" stroke-width="1" fill="none" fill-rule="evenodd" transform="translate(-1316.000000, -168.000000)">
        <g id="011-vertical-alignment-2" transform="translate(1316.911565, 168.037037)" fill="#EBF1F5" fill-rule="nonzero">
            <path d="M7.41678005,8.56513778 L7.41678005,1.92967704 C7.41678005,1.62008 7.65695283,1.36888889 7.95296961,1.36888889 L11.2431841,1.36888889 C11.539419,1.36888889 11.7795918,1.62008 11.7795918,1.92967704 L11.7795918,8.56490963 C11.7795918,8.87473481 11.539419,9.12592593 11.2434023,9.12592593 L7.95296961,9.12592593 C7.65695283,9.12592593 7.41678005,8.87473481 7.41678005,8.56513778 Z" id="Shape"></path>
            <path d="M1.30884354,10.8466193 L1.30884354,1.92967704 C1.30884354,1.62008 1.54901633,1.36888889 1.84503311,1.36888889 L5.13524762,1.36888889 C5.43148254,1.36888889 5.67165533,1.62008 5.67165533,1.92967704 L5.67165533,10.8463911 C5.67165533,11.1562163 5.43148254,11.4074074 5.13546576,11.4074074 L1.84503311,11.4074074 C1.54901633,11.4074074 1.30884354,11.1562163 1.30884354,10.8466193 Z" id="Shape"></path>
            <path d="M12.8702948,0.456296296 L0.21814059,0.456296296 C0.0977269841,0.456296296 0,0.354085926 0,0.228148148 C0,0.10221037 0.0977269841,0 0.21814059,0 L12.8702948,0 C12.9907084,0 13.0884354,0.10221037 13.0884354,0.228148148 C13.0884354,0.354085926 12.9907084,0.456296296 12.8702948,0.456296296 Z" id="Shape"></path>
        </g>
    </g>
</svg>