<?xml version="1.0" encoding="UTF-8"?>
<svg width="14px" height="12px" viewBox="0 0 14 12" version="1.1" xmlns="http://www.w3.org/2000/svg" xmlns:xlink="http://www.w3.org/1999/xlink">
    <!-- Generator: Sketch 48.2 (47327) - http://www.bohemiancoding.com/sketch -->
    <title>012-vertical-alignment-1</title>
    <desc>Created with Sketch.</desc>
    <defs></defs>
    <g id="Most-Recent-Mock" stroke="none" stroke-width="1" fill="none" fill-rule="evenodd" transform="translate(-1288.000000, -168.000000)">
        <g id="012-vertical-alignment-1" transform="translate(1288.519728, 168.037037)" fill="#EBF1F5" fill-rule="nonzero">
            <path d="M7.41678005,2.84226963 L7.41678005,9.47750222 C7.41678005,9.78732741 7.65695283,10.0385185 7.95296961,10.0385185 L11.2431841,10.0385185 C11.539419,10.0385185 11.7795918,9.78732741 11.7795918,9.47773037 L11.7795918,2.84226963 C11.7795918,2.53267259 11.539419,2.28148148 11.2434023,2.28148148 L7.95296961,2.28148148 C7.65695283,2.28148148 7.41678005,2.53267259 7.41678005,2.84226963 Z" id="Shape"></path>
            <path d="M1.30884354,0.560788148 L1.30884354,9.47750222 C1.30884354,9.78732741 1.54901633,10.0385185 1.84503311,10.0385185 L5.13524762,10.0385185 C5.43148254,10.0385185 5.67165533,9.78732741 5.67165533,9.47773037 L5.67165533,0.560788148 C5.67165533,0.251191111 5.43148254,0 5.13546576,0 L1.84503311,0 C1.54901633,0 1.30884354,0.251191111 1.30884354,0.560788148 Z" id="Shape"></path>
            <path d="M12.8702948,11.4074074 L0.21814059,11.4074074 C0.0975088435,11.4074074 0,11.305197 0,11.1792593 C0,11.0533215 0.0975088435,10.9511111 0.21814059,10.9511111 L12.8702948,10.9511111 C12.9909265,10.9511111 13.0884354,11.0533215 13.0884354,11.1792593 C13.0884354,11.305197 12.9909265,11.4074074 12.8702948,11.4074074 Z" id="Shape"></path>
        </g>
    </g>
</svg>